<mxfile host="app.diagrams.net" modified="2023-04-09T09:53:10.315Z" agent="Mozilla/5.0 (Windows NT 10.0; Win64; x64) AppleWebKit/537.36 (KHTML, like Gecko) Chrome/111.0.0.0 Safari/537.36" etag="37XgWu6aQxunq7tzzk4c" version="21.1.1" type="device">
  <diagram id="C5RBs43oDa-KdzZeNtuy" name="Page-1">
    <mxGraphModel dx="2015" dy="1665" grid="1" gridSize="10" guides="1" tooltips="1" connect="1" arrows="1" fold="1" page="1" pageScale="1" pageWidth="827" pageHeight="1169" math="0" shadow="0">
      <root>
        <mxCell id="WIyWlLk6GJQsqaUBKTNV-0" />
        <mxCell id="WIyWlLk6GJQsqaUBKTNV-1" parent="WIyWlLk6GJQsqaUBKTNV-0" />
        <mxCell id="vQxeVasYHQwNIkFF47vL-263" value="&lt;b style=&quot;font-size: 9px;&quot;&gt;Presentation Layer&lt;/b&gt;" style="verticalAlign=top;align=center;spacingTop=8;spacingLeft=2;spacingRight=12;shape=cube;size=10;direction=south;fontStyle=4;html=1;fontSize=9;" parent="WIyWlLk6GJQsqaUBKTNV-1" vertex="1">
          <mxGeometry x="-810" y="-1150" width="810" height="430" as="geometry" />
        </mxCell>
        <mxCell id="vQxeVasYHQwNIkFF47vL-264" value="&lt;p style=&quot;margin:0px;margin-top:4px;margin-left:10px;text-align:left;&quot;&gt;&lt;b&gt;Model&lt;/b&gt;&lt;/p&gt;" style="html=1;shape=mxgraph.sysml.package;html=1;overflow=fill;whiteSpace=wrap;fontSize=9;" parent="WIyWlLk6GJQsqaUBKTNV-1" vertex="1">
          <mxGeometry x="-790" y="-830" width="760" height="100" as="geometry" />
        </mxCell>
        <mxCell id="vQxeVasYHQwNIkFF47vL-265" value="&lt;p style=&quot;margin:0px;margin-top:4px;margin-left:10px;text-align:left;&quot;&gt;&lt;b&gt;ViewModel&lt;/b&gt;&lt;/p&gt;" style="html=1;shape=mxgraph.sysml.package;html=1;overflow=fill;whiteSpace=wrap;fontSize=9;" parent="WIyWlLk6GJQsqaUBKTNV-1" vertex="1">
          <mxGeometry x="-790" y="-905" width="760" height="65" as="geometry" />
        </mxCell>
        <mxCell id="vQxeVasYHQwNIkFF47vL-266" value="&lt;p style=&quot;margin:0px;margin-top:4px;margin-left:10px;text-align:left;&quot;&gt;&lt;b&gt;View&lt;/b&gt;&lt;/p&gt;" style="html=1;shape=mxgraph.sysml.package;html=1;overflow=fill;whiteSpace=wrap;fontSize=9;" parent="WIyWlLk6GJQsqaUBKTNV-1" vertex="1">
          <mxGeometry x="-790" y="-1115.5" width="760" height="205.5" as="geometry" />
        </mxCell>
        <mxCell id="vQxeVasYHQwNIkFF47vL-267" value="&lt;&lt;Singleton&gt;&gt;&#xa;BackendController" style="swimlane;fontStyle=1;align=center;verticalAlign=top;childLayout=stackLayout;horizontal=1;startSize=40;horizontalStack=0;resizeParent=1;resizeParentMax=0;resizeLast=0;collapsible=1;marginBottom=0;fontSize=9;" parent="WIyWlLk6GJQsqaUBKTNV-1" vertex="1">
          <mxGeometry x="-512" y="-820" width="220" height="74" as="geometry" />
        </mxCell>
        <mxCell id="vQxeVasYHQwNIkFF47vL-268" value="- String loggedUsername" style="text;strokeColor=none;fillColor=none;align=left;verticalAlign=top;spacingLeft=4;spacingRight=4;overflow=hidden;rotatable=0;points=[[0,0.5],[1,0.5]];portConstraint=eastwest;fontStyle=0;fontSize=9;" parent="vQxeVasYHQwNIkFF47vL-267" vertex="1">
          <mxGeometry y="40" width="220" height="26" as="geometry" />
        </mxCell>
        <mxCell id="vQxeVasYHQwNIkFF47vL-271" value="" style="line;strokeWidth=1;fillColor=none;align=left;verticalAlign=middle;spacingTop=-1;spacingLeft=3;spacingRight=3;rotatable=0;labelPosition=right;points=[];portConstraint=eastwest;fontSize=9;" parent="vQxeVasYHQwNIkFF47vL-267" vertex="1">
          <mxGeometry y="66" width="220" height="8" as="geometry" />
        </mxCell>
        <mxCell id="vQxeVasYHQwNIkFF47vL-278" value="&lt;b style=&quot;font-size: 9px;&quot;&gt;Service Layer&lt;/b&gt;" style="verticalAlign=top;align=center;spacingTop=8;spacingLeft=2;spacingRight=12;shape=cube;size=10;direction=south;fontStyle=4;html=1;fontSize=9;" parent="WIyWlLk6GJQsqaUBKTNV-1" vertex="1">
          <mxGeometry x="-810" y="-694" width="810" height="560" as="geometry" />
        </mxCell>
        <mxCell id="vQxeVasYHQwNIkFF47vL-280" value="returns" style="edgeStyle=orthogonalEdgeStyle;rounded=0;orthogonalLoop=1;jettySize=auto;html=1;entryX=0;entryY=0.5;entryDx=0;entryDy=0;fontSize=9;" parent="WIyWlLk6GJQsqaUBKTNV-1" source="vQxeVasYHQwNIkFF47vL-348" target="vQxeVasYHQwNIkFF47vL-297" edge="1">
          <mxGeometry relative="1" as="geometry">
            <Array as="points">
              <mxPoint x="-582" y="-625" />
            </Array>
          </mxGeometry>
        </mxCell>
        <mxCell id="vQxeVasYHQwNIkFF47vL-281" value="returns" style="edgeStyle=orthogonalEdgeStyle;rounded=0;orthogonalLoop=1;jettySize=auto;html=1;entryX=1;entryY=0.5;entryDx=0;entryDy=0;fontSize=9;" parent="WIyWlLk6GJQsqaUBKTNV-1" source="vQxeVasYHQwNIkFF47vL-282" target="vQxeVasYHQwNIkFF47vL-297" edge="1">
          <mxGeometry relative="1" as="geometry" />
        </mxCell>
        <mxCell id="vQxeVasYHQwNIkFF47vL-282" value="&lt;&lt;Singleton&gt;&gt;&#xa;UserService" style="swimlane;fontStyle=1;align=center;verticalAlign=top;childLayout=stackLayout;horizontal=1;startSize=40;horizontalStack=0;resizeParent=1;resizeLast=0;collapsible=1;marginBottom=0;rounded=0;shadow=0;strokeWidth=1;fontSize=9;" parent="WIyWlLk6GJQsqaUBKTNV-1" vertex="1">
          <mxGeometry x="-350" y="-560" width="332" height="60" as="geometry">
            <mxRectangle x="130" y="380" width="160" height="26" as="alternateBounds" />
          </mxGeometry>
        </mxCell>
        <mxCell id="vQxeVasYHQwNIkFF47vL-285" value="" style="line;html=1;strokeWidth=1;align=left;verticalAlign=middle;spacingTop=-1;spacingLeft=3;spacingRight=3;rotatable=0;labelPosition=right;points=[];portConstraint=eastwest;fontSize=9;" parent="vQxeVasYHQwNIkFF47vL-282" vertex="1">
          <mxGeometry y="40" width="332" height="8" as="geometry" />
        </mxCell>
        <mxCell id="vQxeVasYHQwNIkFF47vL-296" value="Response&lt;T&gt;" style="swimlane;fontStyle=1;align=center;verticalAlign=top;childLayout=stackLayout;horizontal=1;startSize=26;horizontalStack=0;resizeParent=1;resizeParentMax=0;resizeLast=0;collapsible=1;marginBottom=0;fontSize=9;" parent="WIyWlLk6GJQsqaUBKTNV-1" vertex="1">
          <mxGeometry x="-562" y="-664" width="320" height="86" as="geometry" />
        </mxCell>
        <mxCell id="vQxeVasYHQwNIkFF47vL-297" value="- returnValue: T" style="text;strokeColor=none;fillColor=none;align=left;verticalAlign=top;spacingLeft=4;spacingRight=4;overflow=hidden;rotatable=0;points=[[0,0.5],[1,0.5]];portConstraint=eastwest;fontSize=9;" parent="vQxeVasYHQwNIkFF47vL-296" vertex="1">
          <mxGeometry y="26" width="320" height="26" as="geometry" />
        </mxCell>
        <mxCell id="vQxeVasYHQwNIkFF47vL-298" value="- errorMessage: String" style="text;strokeColor=none;fillColor=none;align=left;verticalAlign=top;spacingLeft=4;spacingRight=4;overflow=hidden;rotatable=0;points=[[0,0.5],[1,0.5]];portConstraint=eastwest;fontStyle=0;fontSize=9;" parent="vQxeVasYHQwNIkFF47vL-296" vertex="1">
          <mxGeometry y="52" width="320" height="26" as="geometry" />
        </mxCell>
        <mxCell id="vQxeVasYHQwNIkFF47vL-299" value="" style="line;strokeWidth=1;fillColor=none;align=left;verticalAlign=middle;spacingTop=-1;spacingLeft=3;spacingRight=3;rotatable=0;labelPosition=right;points=[];portConstraint=eastwest;fontSize=9;" parent="vQxeVasYHQwNIkFF47vL-296" vertex="1">
          <mxGeometry y="78" width="320" height="8" as="geometry" />
        </mxCell>
        <mxCell id="vQxeVasYHQwNIkFF47vL-303" value="&lt;b style=&quot;font-size: 9px;&quot;&gt;Business Layer&lt;/b&gt;" style="verticalAlign=top;align=center;spacingTop=8;spacingLeft=2;spacingRight=12;shape=cube;size=10;direction=south;fontStyle=4;html=1;fontSize=9;" parent="WIyWlLk6GJQsqaUBKTNV-1" vertex="1">
          <mxGeometry x="-810" y="10" width="810" height="770" as="geometry" />
        </mxCell>
        <mxCell id="vQxeVasYHQwNIkFF47vL-304" value="uses" style="edgeStyle=orthogonalEdgeStyle;rounded=0;orthogonalLoop=1;jettySize=auto;html=1;entryX=0.001;entryY=0.045;entryDx=0;entryDy=0;entryPerimeter=0;startArrow=none;startFill=0;endArrow=classic;endFill=1;fontSize=9;" parent="WIyWlLk6GJQsqaUBKTNV-1" source="vQxeVasYHQwNIkFF47vL-307" target="vQxeVasYHQwNIkFF47vL-334" edge="1">
          <mxGeometry relative="1" as="geometry">
            <Array as="points">
              <mxPoint x="-360" y="120" />
              <mxPoint x="-360" y="87" />
            </Array>
          </mxGeometry>
        </mxCell>
        <mxCell id="vQxeVasYHQwNIkFF47vL-305" value="" style="edgeStyle=orthogonalEdgeStyle;rounded=0;orthogonalLoop=1;jettySize=auto;html=1;startArrow=none;startFill=0;endArrow=diamondThin;endFill=0;fontSize=9;" parent="WIyWlLk6GJQsqaUBKTNV-1" source="vQxeVasYHQwNIkFF47vL-307" edge="1">
          <mxGeometry relative="1" as="geometry">
            <mxPoint x="-780" y="-500" as="targetPoint" />
            <Array as="points">
              <mxPoint x="-579" y="-60" />
              <mxPoint x="-780" y="-60" />
              <mxPoint x="-780" y="-500" />
            </Array>
          </mxGeometry>
        </mxCell>
        <mxCell id="vQxeVasYHQwNIkFF47vL-306" value="0..n" style="edgeStyle=orthogonalEdgeStyle;rounded=0;orthogonalLoop=1;jettySize=auto;html=1;startArrow=diamondThin;startFill=1;endArrow=none;endFill=0;entryX=0.405;entryY=0.002;entryDx=0;entryDy=0;entryPerimeter=0;fontSize=9;exitX=0.75;exitY=1;exitDx=0;exitDy=0;" parent="WIyWlLk6GJQsqaUBKTNV-1" source="vQxeVasYHQwNIkFF47vL-307" target="vQxeVasYHQwNIkFF47vL-410" edge="1">
          <mxGeometry x="0.5177" relative="1" as="geometry">
            <mxPoint x="-560" y="316" as="targetPoint" />
            <Array as="points">
              <mxPoint x="-475" y="150" />
              <mxPoint x="-475" y="150" />
            </Array>
            <mxPoint as="offset" />
          </mxGeometry>
        </mxCell>
        <mxCell id="vQxeVasYHQwNIkFF47vL-307" value="&lt;&lt;Singleton&gt;&gt;&#xa;EmployeeController" style="swimlane;fontStyle=1;align=center;verticalAlign=top;childLayout=stackLayout;horizontal=1;startSize=42;horizontalStack=0;resizeParent=1;resizeLast=0;collapsible=1;marginBottom=0;rounded=0;shadow=0;strokeWidth=1;fontSize=9;" parent="WIyWlLk6GJQsqaUBKTNV-1" vertex="1">
          <mxGeometry x="-788.63" y="46" width="418.63" height="94" as="geometry">
            <mxRectangle x="130" y="380" width="160" height="26" as="alternateBounds" />
          </mxGeometry>
        </mxCell>
        <mxCell id="vQxeVasYHQwNIkFF47vL-308" value="- employees: Map&amp;lt;Branch, Map&amp;lt;String, Employee&amp;gt;&amp;gt; // branch to &amp;lt;employeeId to Employee&amp;gt;" style="text;html=1;align=left;verticalAlign=middle;resizable=0;points=[];autosize=1;strokeColor=none;fillColor=none;fontSize=9;" parent="vQxeVasYHQwNIkFF47vL-307" vertex="1">
          <mxGeometry y="42" width="418.63" height="20" as="geometry" />
        </mxCell>
        <mxCell id="vQxeVasYHQwNIkFF47vL-309" value="- branches: Map&amp;lt;String, Branch&amp;gt; // branchId to Branch" style="text;html=1;align=left;verticalAlign=middle;resizable=0;points=[];autosize=1;strokeColor=none;fillColor=none;fontSize=9;" parent="vQxeVasYHQwNIkFF47vL-307" vertex="1">
          <mxGeometry y="62" width="418.63" height="20" as="geometry" />
        </mxCell>
        <mxCell id="vQxeVasYHQwNIkFF47vL-311" value="" style="line;html=1;strokeWidth=1;align=left;verticalAlign=middle;spacingTop=-1;spacingLeft=3;spacingRight=3;rotatable=0;labelPosition=right;points=[];portConstraint=eastwest;fontSize=9;" parent="vQxeVasYHQwNIkFF47vL-307" vertex="1">
          <mxGeometry y="82" width="418.63" height="8" as="geometry" />
        </mxCell>
        <mxCell id="vQxeVasYHQwNIkFF47vL-320" value="holds" style="edgeStyle=orthogonalEdgeStyle;rounded=0;orthogonalLoop=1;jettySize=auto;html=1;startArrow=none;startFill=0;endArrow=classic;endFill=1;entryX=0.991;entryY=0.694;entryDx=0;entryDy=0;entryPerimeter=0;exitX=-0.005;exitY=0.774;exitDx=0;exitDy=0;exitPerimeter=0;fontSize=9;" parent="WIyWlLk6GJQsqaUBKTNV-1" source="vQxeVasYHQwNIkFF47vL-325" target="vQxeVasYHQwNIkFF47vL-376" edge="1">
          <mxGeometry x="-0.1061" relative="1" as="geometry">
            <mxPoint x="-144" y="214" as="targetPoint" />
            <Array as="points">
              <mxPoint x="-220" y="283" />
              <mxPoint x="-220" y="257" />
            </Array>
            <mxPoint as="offset" />
          </mxGeometry>
        </mxCell>
        <mxCell id="vQxeVasYHQwNIkFF47vL-321" value="User" style="swimlane;fontStyle=1;align=center;verticalAlign=top;childLayout=stackLayout;horizontal=1;startSize=26;horizontalStack=0;resizeParent=1;resizeLast=0;collapsible=1;marginBottom=0;rounded=0;shadow=0;strokeWidth=1;fontSize=9;" parent="WIyWlLk6GJQsqaUBKTNV-1" vertex="1">
          <mxGeometry x="-211" y="181" width="191" height="254" as="geometry">
            <mxRectangle x="130" y="380" width="160" height="26" as="alternateBounds" />
          </mxGeometry>
        </mxCell>
        <mxCell id="vQxeVasYHQwNIkFF47vL-322" value="- username: String" style="text;html=1;align=left;verticalAlign=middle;resizable=0;points=[];autosize=1;strokeColor=none;fillColor=none;fontSize=9;" parent="vQxeVasYHQwNIkFF47vL-321" vertex="1">
          <mxGeometry y="26" width="191" height="20" as="geometry" />
        </mxCell>
        <mxCell id="vQxeVasYHQwNIkFF47vL-323" value="- password: String" style="text;html=1;align=left;verticalAlign=middle;resizable=0;points=[];autosize=1;strokeColor=none;fillColor=none;fontSize=9;" parent="vQxeVasYHQwNIkFF47vL-321" vertex="1">
          <mxGeometry y="46" width="191" height="20" as="geometry" />
        </mxCell>
        <mxCell id="vQxeVasYHQwNIkFF47vL-324" value="- authorizations: List&amp;lt;Authorization&amp;gt;" style="text;html=1;align=left;verticalAlign=middle;resizable=0;points=[];autosize=1;strokeColor=none;fillColor=none;fontSize=9;" parent="vQxeVasYHQwNIkFF47vL-321" vertex="1">
          <mxGeometry y="66" width="191" height="20" as="geometry" />
        </mxCell>
        <mxCell id="vQxeVasYHQwNIkFF47vL-325" value="- loggedIn: boolean" style="text;html=1;align=left;verticalAlign=middle;resizable=0;points=[];autosize=1;strokeColor=none;fillColor=none;fontSize=9;" parent="vQxeVasYHQwNIkFF47vL-321" vertex="1">
          <mxGeometry y="86" width="191" height="20" as="geometry" />
        </mxCell>
        <mxCell id="vQxeVasYHQwNIkFF47vL-326" value="" style="line;html=1;strokeWidth=1;align=left;verticalAlign=middle;spacingTop=-1;spacingLeft=3;spacingRight=3;rotatable=0;labelPosition=right;points=[];portConstraint=eastwest;fontSize=9;" parent="vQxeVasYHQwNIkFF47vL-321" vertex="1">
          <mxGeometry y="106" width="191" height="8" as="geometry" />
        </mxCell>
        <mxCell id="vQxeVasYHQwNIkFF47vL-327" value="&lt;span style=&quot;font-size: 9px;&quot;&gt;+ isAuthorized(Authorization auth)&lt;br style=&quot;font-size: 9px;&quot;&gt;&amp;nbsp; &amp;nbsp; &amp;nbsp; &amp;nbsp; &amp;nbsp; &amp;nbsp; &amp;nbsp; &amp;nbsp; &amp;nbsp; : boolean&lt;/span&gt;" style="text;html=1;align=left;verticalAlign=middle;resizable=0;points=[];autosize=1;strokeColor=none;fillColor=none;fontStyle=0;fontSize=9;" parent="vQxeVasYHQwNIkFF47vL-321" vertex="1">
          <mxGeometry y="114" width="191" height="40" as="geometry" />
        </mxCell>
        <mxCell id="vQxeVasYHQwNIkFF47vL-328" value="&lt;span style=&quot;font-size: 9px;&quot;&gt;+ login(String password): boolean&lt;/span&gt;" style="text;html=1;align=left;verticalAlign=middle;resizable=0;points=[];autosize=1;strokeColor=none;fillColor=none;fontStyle=0;fontSize=9;" parent="vQxeVasYHQwNIkFF47vL-321" vertex="1">
          <mxGeometry y="154" width="191" height="20" as="geometry" />
        </mxCell>
        <mxCell id="vQxeVasYHQwNIkFF47vL-329" value="&lt;span style=&quot;font-size: 9px;&quot;&gt;+ logout(): void&lt;/span&gt;" style="text;html=1;align=left;verticalAlign=middle;resizable=0;points=[];autosize=1;strokeColor=none;fillColor=none;fontStyle=0;fontSize=9;" parent="vQxeVasYHQwNIkFF47vL-321" vertex="1">
          <mxGeometry y="174" width="191" height="20" as="geometry" />
        </mxCell>
        <mxCell id="vQxeVasYHQwNIkFF47vL-330" value="&lt;span style=&quot;font-size: 9px;&quot;&gt;+ authorize(Authorization auth): void&lt;/span&gt;" style="text;html=1;align=left;verticalAlign=middle;resizable=0;points=[];autosize=1;strokeColor=none;fillColor=none;fontStyle=0;fontSize=9;" parent="vQxeVasYHQwNIkFF47vL-321" vertex="1">
          <mxGeometry y="194" width="191" height="20" as="geometry" />
        </mxCell>
        <mxCell id="vQxeVasYHQwNIkFF47vL-331" value="" style="edgeStyle=orthogonalEdgeStyle;rounded=0;orthogonalLoop=1;jettySize=auto;html=1;endArrow=diamondThin;endFill=0;exitX=0.925;exitY=0.001;exitDx=0;exitDy=0;startArrow=none;startFill=0;exitPerimeter=0;fontSize=9;entryX=0.75;entryY=1;entryDx=0;entryDy=0;" parent="WIyWlLk6GJQsqaUBKTNV-1" source="vQxeVasYHQwNIkFF47vL-333" target="vQxeVasYHQwNIkFF47vL-282" edge="1">
          <mxGeometry relative="1" as="geometry">
            <mxPoint x="-50" y="320" as="targetPoint" />
            <Array as="points">
              <mxPoint x="-45" y="-480" />
              <mxPoint x="-101" y="-480" />
            </Array>
          </mxGeometry>
        </mxCell>
        <mxCell id="vQxeVasYHQwNIkFF47vL-332" value="uses" style="edgeStyle=orthogonalEdgeStyle;rounded=0;orthogonalLoop=1;jettySize=auto;html=1;entryX=0.5;entryY=0;entryDx=0;entryDy=0;startArrow=none;startFill=0;endArrow=classic;endFill=1;fontSize=9;" parent="WIyWlLk6GJQsqaUBKTNV-1" target="vQxeVasYHQwNIkFF47vL-374" edge="1">
          <mxGeometry relative="1" as="geometry">
            <mxPoint x="-291" y="120" as="sourcePoint" />
            <Array as="points">
              <mxPoint x="-291" y="140" />
              <mxPoint x="-291" y="140" />
            </Array>
          </mxGeometry>
        </mxCell>
        <mxCell id="vQxeVasYHQwNIkFF47vL-333" value="&lt;&lt;Singleton&gt;&gt;&#xa;UserController" style="swimlane;fontStyle=1;align=center;verticalAlign=top;childLayout=stackLayout;horizontal=1;startSize=40;horizontalStack=0;resizeParent=1;resizeLast=0;collapsible=1;marginBottom=0;rounded=0;shadow=0;strokeWidth=1;fontSize=9;" parent="WIyWlLk6GJQsqaUBKTNV-1" vertex="1">
          <mxGeometry x="-350" y="46" width="330" height="74" as="geometry">
            <mxRectangle x="130" y="380" width="160" height="26" as="alternateBounds" />
          </mxGeometry>
        </mxCell>
        <mxCell id="vQxeVasYHQwNIkFF47vL-334" value="- users: Map&amp;lt;String,User&amp;gt;" style="text;html=1;align=left;verticalAlign=middle;resizable=0;points=[];autosize=1;strokeColor=none;fillColor=none;fontSize=9;" parent="vQxeVasYHQwNIkFF47vL-333" vertex="1">
          <mxGeometry y="40" width="330" height="20" as="geometry" />
        </mxCell>
        <mxCell id="vQxeVasYHQwNIkFF47vL-336" value="" style="line;html=1;strokeWidth=1;align=left;verticalAlign=middle;spacingTop=-1;spacingLeft=3;spacingRight=3;rotatable=0;labelPosition=right;points=[];portConstraint=eastwest;fontSize=9;" parent="vQxeVasYHQwNIkFF47vL-333" vertex="1">
          <mxGeometry y="60" width="330" height="8" as="geometry" />
        </mxCell>
        <mxCell id="vQxeVasYHQwNIkFF47vL-527" value="" style="edgeStyle=orthogonalEdgeStyle;rounded=0;orthogonalLoop=1;jettySize=auto;html=1;entryX=0.5;entryY=0;entryDx=0;entryDy=0;startArrow=none;startFill=0;endArrow=classic;endFill=1;" parent="WIyWlLk6GJQsqaUBKTNV-1" source="vQxeVasYHQwNIkFF47vL-348" target="vQxeVasYHQwNIkFF47vL-387" edge="1">
          <mxGeometry relative="1" as="geometry">
            <Array as="points">
              <mxPoint x="-575" y="-460" />
              <mxPoint x="-607" y="-460" />
            </Array>
          </mxGeometry>
        </mxCell>
        <mxCell id="vQxeVasYHQwNIkFF47vL-348" value="&lt;&lt;Singleton&gt;&gt;&#xa;EmployeesService" style="swimlane;fontStyle=1;align=center;verticalAlign=top;childLayout=stackLayout;horizontal=1;startSize=40;horizontalStack=0;resizeParent=1;resizeLast=0;collapsible=1;marginBottom=0;rounded=0;shadow=0;strokeWidth=1;fontSize=9;" parent="WIyWlLk6GJQsqaUBKTNV-1" vertex="1">
          <mxGeometry x="-790" y="-560" width="430" height="60" as="geometry">
            <mxRectangle x="130" y="380" width="160" height="26" as="alternateBounds" />
          </mxGeometry>
        </mxCell>
        <mxCell id="vQxeVasYHQwNIkFF47vL-351" value="" style="line;html=1;strokeWidth=1;align=left;verticalAlign=middle;spacingTop=-1;spacingLeft=3;spacingRight=3;rotatable=0;labelPosition=right;points=[];portConstraint=eastwest;fontSize=9;" parent="vQxeVasYHQwNIkFF47vL-348" vertex="1">
          <mxGeometry y="40" width="430" height="8" as="geometry" />
        </mxCell>
        <mxCell id="vQxeVasYHQwNIkFF47vL-374" value="&lt;&lt;Enum&gt;&gt;&#xa;Authorization" style="swimlane;fontStyle=1;align=center;verticalAlign=top;childLayout=stackLayout;horizontal=1;startSize=40;horizontalStack=0;resizeParent=1;resizeLast=0;collapsible=1;marginBottom=0;rounded=0;shadow=0;strokeWidth=1;fontSize=9;" parent="WIyWlLk6GJQsqaUBKTNV-1" vertex="1">
          <mxGeometry x="-350" y="183" width="117" height="200" as="geometry">
            <mxRectangle x="130" y="380" width="160" height="26" as="alternateBounds" />
          </mxGeometry>
        </mxCell>
        <mxCell id="vQxeVasYHQwNIkFF47vL-375" value="HRManager" style="text;html=1;align=left;verticalAlign=middle;resizable=0;points=[];autosize=1;strokeColor=none;fillColor=none;fontSize=9;" parent="vQxeVasYHQwNIkFF47vL-374" vertex="1">
          <mxGeometry y="40" width="117" height="20" as="geometry" />
        </mxCell>
        <mxCell id="vQxeVasYHQwNIkFF47vL-376" value="Cashier" style="text;html=1;align=left;verticalAlign=middle;resizable=0;points=[];autosize=1;strokeColor=none;fillColor=none;fontSize=9;" parent="vQxeVasYHQwNIkFF47vL-374" vertex="1">
          <mxGeometry y="60" width="117" height="20" as="geometry" />
        </mxCell>
        <mxCell id="vQxeVasYHQwNIkFF47vL-377" value="Storekeeper" style="text;html=1;align=left;verticalAlign=middle;resizable=0;points=[];autosize=1;strokeColor=none;fillColor=none;fontSize=9;" parent="vQxeVasYHQwNIkFF47vL-374" vertex="1">
          <mxGeometry y="80" width="117" height="20" as="geometry" />
        </mxCell>
        <mxCell id="vQxeVasYHQwNIkFF47vL-378" value="ShiftManager" style="text;html=1;align=left;verticalAlign=middle;resizable=0;points=[];autosize=1;strokeColor=none;fillColor=none;fontSize=9;" parent="vQxeVasYHQwNIkFF47vL-374" vertex="1">
          <mxGeometry y="100" width="117" height="20" as="geometry" />
        </mxCell>
        <mxCell id="vQxeVasYHQwNIkFF47vL-379" value="LogisticsManager" style="text;html=1;align=left;verticalAlign=middle;resizable=0;points=[];autosize=1;strokeColor=none;fillColor=none;fontSize=9;" parent="vQxeVasYHQwNIkFF47vL-374" vertex="1">
          <mxGeometry y="120" width="117" height="20" as="geometry" />
        </mxCell>
        <mxCell id="vQxeVasYHQwNIkFF47vL-380" value="uses" style="edgeStyle=orthogonalEdgeStyle;rounded=0;orthogonalLoop=1;jettySize=auto;html=1;entryX=0.016;entryY=0;entryDx=0;entryDy=0;entryPerimeter=0;startArrow=classic;startFill=1;endArrow=none;endFill=0;fontSize=9;" parent="WIyWlLk6GJQsqaUBKTNV-1" target="vQxeVasYHQwNIkFF47vL-422" edge="1">
          <mxGeometry x="-0.218" y="10" relative="1" as="geometry">
            <Array as="points">
              <mxPoint x="-710" y="300" />
              <mxPoint x="-710" y="308" />
              <mxPoint x="-790" y="308" />
              <mxPoint x="-790" y="440" />
            </Array>
            <mxPoint as="offset" />
            <mxPoint x="-710" y="281" as="sourcePoint" />
          </mxGeometry>
        </mxCell>
        <mxCell id="vQxeVasYHQwNIkFF47vL-381" value="Branch" style="swimlane;fontStyle=1;align=center;verticalAlign=top;childLayout=stackLayout;horizontal=1;startSize=26;horizontalStack=0;resizeParent=1;resizeLast=0;collapsible=1;marginBottom=0;rounded=0;shadow=0;strokeWidth=1;fontSize=9;" parent="WIyWlLk6GJQsqaUBKTNV-1" vertex="1">
          <mxGeometry x="-750" y="166" width="180" height="114" as="geometry">
            <mxRectangle x="130" y="380" width="160" height="26" as="alternateBounds" />
          </mxGeometry>
        </mxCell>
        <mxCell id="vQxeVasYHQwNIkFF47vL-382" value="- LocalTime morningStart" style="text;html=1;align=left;verticalAlign=middle;resizable=0;points=[];autosize=1;strokeColor=none;fillColor=none;fontSize=9;" parent="vQxeVasYHQwNIkFF47vL-381" vertex="1">
          <mxGeometry y="26" width="180" height="20" as="geometry" />
        </mxCell>
        <mxCell id="vQxeVasYHQwNIkFF47vL-383" value="- LocalTime morningEnd" style="text;html=1;align=left;verticalAlign=middle;resizable=0;points=[];autosize=1;strokeColor=none;fillColor=none;fontSize=9;" parent="vQxeVasYHQwNIkFF47vL-381" vertex="1">
          <mxGeometry y="46" width="180" height="20" as="geometry" />
        </mxCell>
        <mxCell id="vQxeVasYHQwNIkFF47vL-384" value="- LocalTime eveningStart" style="text;html=1;align=left;verticalAlign=middle;resizable=0;points=[];autosize=1;strokeColor=none;fillColor=none;fontSize=9;" parent="vQxeVasYHQwNIkFF47vL-381" vertex="1">
          <mxGeometry y="66" width="180" height="20" as="geometry" />
        </mxCell>
        <mxCell id="vQxeVasYHQwNIkFF47vL-385" value="- LocalTime eveningEnd" style="text;html=1;align=left;verticalAlign=middle;resizable=0;points=[];autosize=1;strokeColor=none;fillColor=none;fontSize=9;" parent="vQxeVasYHQwNIkFF47vL-381" vertex="1">
          <mxGeometry y="86" width="180" height="20" as="geometry" />
        </mxCell>
        <mxCell id="vQxeVasYHQwNIkFF47vL-386" value="" style="line;html=1;strokeWidth=1;align=left;verticalAlign=middle;spacingTop=-1;spacingLeft=3;spacingRight=3;rotatable=0;labelPosition=right;points=[];portConstraint=eastwest;fontSize=9;" parent="vQxeVasYHQwNIkFF47vL-381" vertex="1">
          <mxGeometry y="106" width="180" height="8" as="geometry" />
        </mxCell>
        <mxCell id="vQxeVasYHQwNIkFF47vL-387" value="SShift" style="swimlane;fontStyle=1;align=center;verticalAlign=top;childLayout=stackLayout;horizontal=1;startSize=30;horizontalStack=0;resizeParent=1;resizeLast=0;collapsible=1;marginBottom=0;rounded=0;shadow=0;strokeWidth=1;fontSize=9;" parent="WIyWlLk6GJQsqaUBKTNV-1" vertex="1">
          <mxGeometry x="-752.5" y="-434" width="290" height="138" as="geometry">
            <mxRectangle x="130" y="380" width="160" height="26" as="alternateBounds" />
          </mxGeometry>
        </mxCell>
        <mxCell id="vQxeVasYHQwNIkFF47vL-388" value="- shiftDate: LocalDate" style="text;html=1;align=left;verticalAlign=middle;resizable=0;points=[];autosize=1;strokeColor=none;fillColor=none;fontSize=9;" parent="vQxeVasYHQwNIkFF47vL-387" vertex="1">
          <mxGeometry y="30" width="290" height="20" as="geometry" />
        </mxCell>
        <mxCell id="vQxeVasYHQwNIkFF47vL-389" value="- shiftType: ShiftType" style="text;html=1;align=left;verticalAlign=middle;resizable=0;points=[];autosize=1;strokeColor=none;fillColor=none;fontSize=9;" parent="vQxeVasYHQwNIkFF47vL-387" vertex="1">
          <mxGeometry y="50" width="290" height="20" as="geometry" />
        </mxCell>
        <mxCell id="vQxeVasYHQwNIkFF47vL-390" value="- shiftRequests: Map&amp;lt;String,List&amp;lt;SEmployee&amp;gt;&amp;gt;" style="text;html=1;align=left;verticalAlign=middle;resizable=0;points=[];autosize=1;strokeColor=none;fillColor=none;fontSize=9;" parent="vQxeVasYHQwNIkFF47vL-387" vertex="1">
          <mxGeometry y="70" width="290" height="20" as="geometry" />
        </mxCell>
        <mxCell id="vQxeVasYHQwNIkFF47vL-391" value="- shiftWorkers: Map&amp;lt;String,List&amp;lt;SEmployee&amp;gt;&amp;gt;" style="text;html=1;align=left;verticalAlign=middle;resizable=0;points=[];autosize=1;strokeColor=none;fillColor=none;fontSize=9;" parent="vQxeVasYHQwNIkFF47vL-387" vertex="1">
          <mxGeometry y="90" width="290" height="20" as="geometry" />
        </mxCell>
        <mxCell id="vQxeVasYHQwNIkFF47vL-392" value="- isApproved: boolean" style="text;html=1;align=left;verticalAlign=middle;resizable=0;points=[];autosize=1;strokeColor=none;fillColor=none;fontSize=9;" parent="vQxeVasYHQwNIkFF47vL-387" vertex="1">
          <mxGeometry y="110" width="290" height="20" as="geometry" />
        </mxCell>
        <mxCell id="vQxeVasYHQwNIkFF47vL-393" value="" style="line;html=1;strokeWidth=1;align=left;verticalAlign=middle;spacingTop=-1;spacingLeft=3;spacingRight=3;rotatable=0;labelPosition=right;points=[];portConstraint=eastwest;fontSize=9;" parent="vQxeVasYHQwNIkFF47vL-387" vertex="1">
          <mxGeometry y="130" width="290" height="8" as="geometry" />
        </mxCell>
        <mxCell id="vQxeVasYHQwNIkFF47vL-394" value="&lt;&lt;Enum&gt;&gt;&#xa;SShiftType" style="swimlane;fontStyle=1;align=center;verticalAlign=top;childLayout=stackLayout;horizontal=1;startSize=40;horizontalStack=0;resizeParent=1;resizeLast=0;collapsible=1;marginBottom=0;rounded=0;shadow=0;strokeWidth=1;fontSize=9;" parent="WIyWlLk6GJQsqaUBKTNV-1" vertex="1">
          <mxGeometry x="-430" y="-434" width="80" height="88" as="geometry">
            <mxRectangle x="130" y="380" width="160" height="26" as="alternateBounds" />
          </mxGeometry>
        </mxCell>
        <mxCell id="vQxeVasYHQwNIkFF47vL-395" value="Morning" style="text;html=1;align=middle;verticalAlign=middle;resizable=0;points=[];autosize=1;strokeColor=none;fillColor=none;imageAlign=left;fontSize=9;" parent="vQxeVasYHQwNIkFF47vL-394" vertex="1">
          <mxGeometry y="40" width="80" height="20" as="geometry" />
        </mxCell>
        <mxCell id="vQxeVasYHQwNIkFF47vL-396" value="Evening" style="text;html=1;align=middle;verticalAlign=middle;resizable=0;points=[];autosize=1;strokeColor=none;fillColor=none;fontSize=9;" parent="vQxeVasYHQwNIkFF47vL-394" vertex="1">
          <mxGeometry y="60" width="80" height="20" as="geometry" />
        </mxCell>
        <mxCell id="vQxeVasYHQwNIkFF47vL-397" value="" style="line;html=1;strokeWidth=1;align=left;verticalAlign=middle;spacingTop=-1;spacingLeft=3;spacingRight=3;rotatable=0;labelPosition=right;points=[];portConstraint=eastwest;fontSize=9;" parent="vQxeVasYHQwNIkFF47vL-394" vertex="1">
          <mxGeometry y="80" width="80" height="8" as="geometry" />
        </mxCell>
        <mxCell id="vQxeVasYHQwNIkFF47vL-398" value="0..n" style="edgeStyle=orthogonalEdgeStyle;rounded=0;orthogonalLoop=1;jettySize=auto;html=1;startArrow=diamondThin;startFill=1;endArrow=none;endFill=0;fontSize=9;entryX=0.367;entryY=-0.003;entryDx=0;entryDy=0;exitX=0.25;exitY=1;exitDx=0;exitDy=0;entryPerimeter=0;" parent="WIyWlLk6GJQsqaUBKTNV-1" source="vQxeVasYHQwNIkFF47vL-307" target="vQxeVasYHQwNIkFF47vL-381" edge="1">
          <mxGeometry x="0.5533" relative="1" as="geometry">
            <Array as="points" />
            <mxPoint x="-765.6053499999998" y="195.16000000000008" as="sourcePoint" />
            <mxPoint as="offset" />
            <mxPoint x="-754" y="429" as="targetPoint" />
          </mxGeometry>
        </mxCell>
        <mxCell id="vQxeVasYHQwNIkFF47vL-399" value="SEmployee" style="swimlane;fontStyle=1;align=center;verticalAlign=top;childLayout=stackLayout;horizontal=1;startSize=30;horizontalStack=0;resizeParent=1;resizeLast=0;collapsible=1;marginBottom=0;rounded=0;shadow=0;strokeWidth=1;fontSize=9;" parent="WIyWlLk6GJQsqaUBKTNV-1" vertex="1">
          <mxGeometry x="-320" y="-434" width="150" height="178" as="geometry">
            <mxRectangle x="130" y="380" width="160" height="26" as="alternateBounds" />
          </mxGeometry>
        </mxCell>
        <mxCell id="vQxeVasYHQwNIkFF47vL-400" value="- fullName: String" style="text;html=1;align=left;verticalAlign=middle;resizable=0;points=[];autosize=1;strokeColor=none;fillColor=none;fontSize=9;" parent="vQxeVasYHQwNIkFF47vL-399" vertex="1">
          <mxGeometry y="30" width="150" height="20" as="geometry" />
        </mxCell>
        <mxCell id="vQxeVasYHQwNIkFF47vL-401" value="- id: String" style="text;html=1;align=left;verticalAlign=middle;resizable=0;points=[];autosize=1;strokeColor=none;fillColor=none;fontSize=9;" parent="vQxeVasYHQwNIkFF47vL-399" vertex="1">
          <mxGeometry y="50" width="150" height="20" as="geometry" />
        </mxCell>
        <mxCell id="vQxeVasYHQwNIkFF47vL-402" value="- employmentDate: String" style="text;html=1;align=left;verticalAlign=middle;resizable=0;points=[];autosize=1;strokeColor=none;fillColor=none;fontSize=9;" parent="vQxeVasYHQwNIkFF47vL-399" vertex="1">
          <mxGeometry y="70" width="150" height="20" as="geometry" />
        </mxCell>
        <mxCell id="vQxeVasYHQwNIkFF47vL-403" value="- employmentConditions: String" style="text;html=1;align=left;verticalAlign=middle;resizable=0;points=[];autosize=1;strokeColor=none;fillColor=none;fontSize=9;" parent="vQxeVasYHQwNIkFF47vL-399" vertex="1">
          <mxGeometry y="90" width="150" height="20" as="geometry" />
        </mxCell>
        <mxCell id="vQxeVasYHQwNIkFF47vL-404" value="- details: String" style="text;html=1;align=left;verticalAlign=middle;resizable=0;points=[];autosize=1;strokeColor=none;fillColor=none;fontSize=9;" parent="vQxeVasYHQwNIkFF47vL-399" vertex="1">
          <mxGeometry y="110" width="150" height="20" as="geometry" />
        </mxCell>
        <mxCell id="vQxeVasYHQwNIkFF47vL-405" value="- expectedSalary: double" style="text;html=1;align=left;verticalAlign=middle;resizable=0;points=[];autosize=1;strokeColor=none;fillColor=none;fontSize=9;" parent="vQxeVasYHQwNIkFF47vL-399" vertex="1">
          <mxGeometry y="130" width="150" height="20" as="geometry" />
        </mxCell>
        <mxCell id="vQxeVasYHQwNIkFF47vL-406" value="- roles: Set&amp;lt;String&amp;gt;" style="text;html=1;align=left;verticalAlign=middle;resizable=0;points=[];autosize=1;strokeColor=none;fillColor=none;fontSize=9;" parent="vQxeVasYHQwNIkFF47vL-399" vertex="1">
          <mxGeometry y="150" width="150" height="20" as="geometry" />
        </mxCell>
        <mxCell id="vQxeVasYHQwNIkFF47vL-407" value="" style="line;html=1;strokeWidth=1;align=left;verticalAlign=middle;spacingTop=-1;spacingLeft=3;spacingRight=3;rotatable=0;labelPosition=right;points=[];portConstraint=eastwest;fontSize=9;" parent="vQxeVasYHQwNIkFF47vL-399" vertex="1">
          <mxGeometry y="170" width="150" height="8" as="geometry" />
        </mxCell>
        <mxCell id="vQxeVasYHQwNIkFF47vL-408" value="" style="edgeStyle=orthogonalEdgeStyle;rounded=0;orthogonalLoop=1;jettySize=auto;html=1;startArrow=diamondThin;startFill=0;endArrow=none;endFill=0;fontSize=9;exitX=0;exitY=1;exitDx=0;exitDy=0;entryX=0.002;entryY=0.426;entryDx=0;entryDy=0;entryPerimeter=0;" parent="WIyWlLk6GJQsqaUBKTNV-1" source="vQxeVasYHQwNIkFF47vL-348" target="vQxeVasYHQwNIkFF47vL-422" edge="1">
          <mxGeometry x="0.8125" y="3" relative="1" as="geometry">
            <mxPoint x="-793.26" y="329.8600000000001" as="sourcePoint" />
            <mxPoint x="-795" y="650" as="targetPoint" />
            <Array as="points">
              <mxPoint x="-800" y="-500" />
              <mxPoint x="-800" y="474" />
            </Array>
            <mxPoint as="offset" />
          </mxGeometry>
        </mxCell>
        <mxCell id="vQxeVasYHQwNIkFF47vL-409" value="has" style="edgeStyle=orthogonalEdgeStyle;rounded=0;orthogonalLoop=1;jettySize=auto;html=1;entryX=0.008;entryY=0.472;entryDx=0;entryDy=0;entryPerimeter=0;startArrow=none;startFill=0;endArrow=classic;endFill=1;fontSize=9;" parent="WIyWlLk6GJQsqaUBKTNV-1" source="vQxeVasYHQwNIkFF47vL-410" target="vQxeVasYHQwNIkFF47vL-467" edge="1">
          <mxGeometry relative="1" as="geometry">
            <Array as="points">
              <mxPoint x="-360" y="318" />
              <mxPoint x="-360" y="442" />
              <mxPoint x="-349" y="442" />
            </Array>
          </mxGeometry>
        </mxCell>
        <mxCell id="vQxeVasYHQwNIkFF47vL-410" value="Employee" style="swimlane;fontStyle=1;align=center;verticalAlign=top;childLayout=stackLayout;horizontal=1;startSize=26;horizontalStack=0;resizeParent=1;resizeLast=0;collapsible=1;marginBottom=0;rounded=0;shadow=0;strokeWidth=1;fontSize=9;" parent="WIyWlLk6GJQsqaUBKTNV-1" vertex="1">
          <mxGeometry x="-548" y="166" width="180" height="244" as="geometry">
            <mxRectangle x="130" y="380" width="160" height="26" as="alternateBounds" />
          </mxGeometry>
        </mxCell>
        <mxCell id="vQxeVasYHQwNIkFF47vL-411" value="- fullName: String" style="text;html=1;align=left;verticalAlign=middle;resizable=0;points=[];autosize=1;strokeColor=none;fillColor=none;fontSize=9;" parent="vQxeVasYHQwNIkFF47vL-410" vertex="1">
          <mxGeometry y="26" width="180" height="20" as="geometry" />
        </mxCell>
        <mxCell id="vQxeVasYHQwNIkFF47vL-412" value="- ID: String" style="text;html=1;align=left;verticalAlign=middle;resizable=0;points=[];autosize=1;strokeColor=none;fillColor=none;fontSize=9;" parent="vQxeVasYHQwNIkFF47vL-410" vertex="1">
          <mxGeometry y="46" width="180" height="20" as="geometry" />
        </mxCell>
        <mxCell id="vQxeVasYHQwNIkFF47vL-413" value="- bankDetails: String" style="text;html=1;align=left;verticalAlign=middle;resizable=0;points=[];autosize=1;strokeColor=none;fillColor=none;fontSize=9;" parent="vQxeVasYHQwNIkFF47vL-410" vertex="1">
          <mxGeometry y="66" width="180" height="20" as="geometry" />
        </mxCell>
        <mxCell id="vQxeVasYHQwNIkFF47vL-414" value="- hourlySalaryRate: double" style="text;html=1;align=left;verticalAlign=middle;resizable=0;points=[];autosize=1;strokeColor=none;fillColor=none;fontSize=9;" parent="vQxeVasYHQwNIkFF47vL-410" vertex="1">
          <mxGeometry y="86" width="180" height="20" as="geometry" />
        </mxCell>
        <mxCell id="vQxeVasYHQwNIkFF47vL-415" value="- monthlyHours: double" style="text;html=1;align=left;verticalAlign=middle;resizable=0;points=[];autosize=1;strokeColor=none;fillColor=none;fontSize=9;" parent="vQxeVasYHQwNIkFF47vL-410" vertex="1">
          <mxGeometry y="106" width="180" height="20" as="geometry" />
        </mxCell>
        <mxCell id="vQxeVasYHQwNIkFF47vL-416" value="- salaryBonus: double" style="text;html=1;align=left;verticalAlign=middle;resizable=0;points=[];autosize=1;strokeColor=none;fillColor=none;fontSize=9;" parent="vQxeVasYHQwNIkFF47vL-410" vertex="1">
          <mxGeometry y="126" width="180" height="20" as="geometry" />
        </mxCell>
        <mxCell id="vQxeVasYHQwNIkFF47vL-417" value="- employmentDate: LocalDate" style="text;html=1;align=left;verticalAlign=middle;resizable=0;points=[];autosize=1;strokeColor=none;fillColor=none;fontSize=9;" parent="vQxeVasYHQwNIkFF47vL-410" vertex="1">
          <mxGeometry y="146" width="180" height="20" as="geometry" />
        </mxCell>
        <mxCell id="vQxeVasYHQwNIkFF47vL-418" value="- employmentConditions: String" style="text;html=1;align=left;verticalAlign=middle;resizable=0;points=[];autosize=1;strokeColor=none;fillColor=none;fontSize=9;" parent="vQxeVasYHQwNIkFF47vL-410" vertex="1">
          <mxGeometry y="166" width="180" height="20" as="geometry" />
        </mxCell>
        <mxCell id="vQxeVasYHQwNIkFF47vL-419" value="- details: String" style="text;html=1;align=left;verticalAlign=middle;resizable=0;points=[];autosize=1;strokeColor=none;fillColor=none;fontSize=9;" parent="vQxeVasYHQwNIkFF47vL-410" vertex="1">
          <mxGeometry y="186" width="180" height="20" as="geometry" />
        </mxCell>
        <mxCell id="vQxeVasYHQwNIkFF47vL-420" value="- roles: Set&amp;lt;Role&amp;gt;" style="text;html=1;align=left;verticalAlign=middle;resizable=0;points=[];autosize=1;strokeColor=none;fillColor=none;fontSize=9;" parent="vQxeVasYHQwNIkFF47vL-410" vertex="1">
          <mxGeometry y="206" width="180" height="20" as="geometry" />
        </mxCell>
        <mxCell id="vQxeVasYHQwNIkFF47vL-421" value="" style="line;html=1;strokeWidth=1;align=left;verticalAlign=middle;spacingTop=-1;spacingLeft=3;spacingRight=3;rotatable=0;labelPosition=right;points=[];portConstraint=eastwest;fontSize=9;" parent="vQxeVasYHQwNIkFF47vL-410" vertex="1">
          <mxGeometry y="226" width="180" height="8" as="geometry" />
        </mxCell>
        <mxCell id="vQxeVasYHQwNIkFF47vL-422" value="&lt;&lt;Singleton&gt;&gt;&#xa;ShiftController" style="swimlane;fontStyle=1;align=center;verticalAlign=top;childLayout=stackLayout;horizontal=1;startSize=42;horizontalStack=0;resizeParent=1;resizeLast=0;collapsible=1;marginBottom=0;rounded=0;shadow=0;strokeWidth=1;fontSize=9;" parent="WIyWlLk6GJQsqaUBKTNV-1" vertex="1">
          <mxGeometry x="-795" y="440" width="425" height="79" as="geometry">
            <mxRectangle x="130" y="380" width="160" height="26" as="alternateBounds" />
          </mxGeometry>
        </mxCell>
        <mxCell id="vQxeVasYHQwNIkFF47vL-423" value="- shifts: Map&amp;lt;String, Map&amp;lt;LocalDate,Map&amp;lt;ShiftType,Shift&amp;gt;&amp;gt;&amp;gt; // branchId to &amp;lt;Date to &amp;lt;ShiftType to Shift&amp;gt;&amp;gt;" style="text;html=1;align=left;verticalAlign=middle;resizable=0;points=[];autosize=1;strokeColor=none;fillColor=none;fontSize=9;" parent="vQxeVasYHQwNIkFF47vL-422" vertex="1">
          <mxGeometry y="42" width="425" height="20" as="geometry" />
        </mxCell>
        <mxCell id="vQxeVasYHQwNIkFF47vL-425" value="" style="line;html=1;strokeWidth=1;align=left;verticalAlign=middle;spacingTop=-1;spacingLeft=3;spacingRight=3;rotatable=0;labelPosition=right;points=[];portConstraint=eastwest;fontSize=9;" parent="vQxeVasYHQwNIkFF47vL-422" vertex="1">
          <mxGeometry y="62" width="425" height="8" as="geometry" />
        </mxCell>
        <mxCell id="vQxeVasYHQwNIkFF47vL-441" value="0..n" style="edgeStyle=orthogonalEdgeStyle;rounded=0;orthogonalLoop=1;jettySize=auto;html=1;startArrow=none;startFill=0;endArrow=diamondThin;endFill=1;fontSize=9;exitX=0.25;exitY=0;exitDx=0;exitDy=0;" parent="WIyWlLk6GJQsqaUBKTNV-1" source="vQxeVasYHQwNIkFF47vL-443" edge="1">
          <mxGeometry x="-0.5529" relative="1" as="geometry">
            <Array as="points">
              <mxPoint x="-668" y="540" />
              <mxPoint x="-690" y="540" />
              <mxPoint x="-690" y="519" />
            </Array>
            <mxPoint as="offset" />
            <mxPoint x="-350" y="628.0344827586205" as="sourcePoint" />
            <mxPoint x="-690" y="519" as="targetPoint" />
          </mxGeometry>
        </mxCell>
        <mxCell id="vQxeVasYHQwNIkFF47vL-442" value="has" style="edgeStyle=orthogonalEdgeStyle;rounded=0;orthogonalLoop=1;jettySize=auto;html=1;fontSize=9;endArrow=classic;endFill=1;exitX=1.008;exitY=0.374;exitDx=0;exitDy=0;exitPerimeter=0;entryX=0.168;entryY=-0.001;entryDx=0;entryDy=0;entryPerimeter=0;" parent="WIyWlLk6GJQsqaUBKTNV-1" source="vQxeVasYHQwNIkFF47vL-445" target="vQxeVasYHQwNIkFF47vL-520" edge="1">
          <mxGeometry relative="1" as="geometry">
            <mxPoint x="-205" y="616" as="sourcePoint" />
            <mxPoint x="-410" y="650" as="targetPoint" />
            <Array as="points">
              <mxPoint x="-411" y="608" />
            </Array>
          </mxGeometry>
        </mxCell>
        <mxCell id="vQxeVasYHQwNIkFF47vL-443" value="Shift" style="swimlane;fontStyle=1;align=center;verticalAlign=top;childLayout=stackLayout;horizontal=1;startSize=30;horizontalStack=0;resizeParent=1;resizeLast=0;collapsible=1;marginBottom=0;rounded=0;shadow=0;strokeWidth=1;fontSize=9;" parent="WIyWlLk6GJQsqaUBKTNV-1" vertex="1">
          <mxGeometry x="-740" y="550" width="290" height="198" as="geometry">
            <mxRectangle x="130" y="380" width="160" height="26" as="alternateBounds" />
          </mxGeometry>
        </mxCell>
        <mxCell id="vQxeVasYHQwNIkFF47vL-444" value="- shiftDate: LocalDate" style="text;html=1;align=left;verticalAlign=middle;resizable=0;points=[];autosize=1;strokeColor=none;fillColor=none;fontSize=9;" parent="vQxeVasYHQwNIkFF47vL-443" vertex="1">
          <mxGeometry y="30" width="290" height="20" as="geometry" />
        </mxCell>
        <mxCell id="vQxeVasYHQwNIkFF47vL-445" value="- shiftType: ShiftType" style="text;html=1;align=left;verticalAlign=middle;resizable=0;points=[];autosize=1;strokeColor=none;fillColor=none;fontSize=9;" parent="vQxeVasYHQwNIkFF47vL-443" vertex="1">
          <mxGeometry y="50" width="290" height="20" as="geometry" />
        </mxCell>
        <mxCell id="vQxeVasYHQwNIkFF47vL-446" value="- isApproved: boolean" style="text;html=1;align=left;verticalAlign=middle;resizable=0;points=[];autosize=1;strokeColor=none;fillColor=none;fontSize=9;" parent="vQxeVasYHQwNIkFF47vL-443" vertex="1">
          <mxGeometry y="70" width="290" height="20" as="geometry" />
        </mxCell>
        <mxCell id="vQxeVasYHQwNIkFF47vL-447" value="- shiftEmployeesAmounts: Map&amp;lt;Role, Integer&amp;gt;" style="text;html=1;align=left;verticalAlign=middle;resizable=0;points=[];autosize=1;strokeColor=none;fillColor=none;fontSize=9;" parent="vQxeVasYHQwNIkFF47vL-443" vertex="1">
          <mxGeometry y="90" width="290" height="20" as="geometry" />
        </mxCell>
        <mxCell id="vQxeVasYHQwNIkFF47vL-448" value="- shiftRequests: Map&amp;lt;String,List&amp;lt;Employee&amp;gt;&amp;gt;" style="text;html=1;align=left;verticalAlign=middle;resizable=0;points=[];autosize=1;strokeColor=none;fillColor=none;fontSize=9;" parent="vQxeVasYHQwNIkFF47vL-443" vertex="1">
          <mxGeometry y="110" width="290" height="20" as="geometry" />
        </mxCell>
        <mxCell id="vQxeVasYHQwNIkFF47vL-449" value="- shiftWorkers: Map&amp;lt;String,List&amp;lt;ShiftEmployee&amp;gt;&amp;gt;" style="text;html=1;align=left;verticalAlign=middle;resizable=0;points=[];autosize=1;strokeColor=none;fillColor=none;fontSize=9;" parent="vQxeVasYHQwNIkFF47vL-443" vertex="1">
          <mxGeometry y="130" width="290" height="20" as="geometry" />
        </mxCell>
        <mxCell id="vQxeVasYHQwNIkFF47vL-450" value="- cancelCardApplies: int" style="text;html=1;align=left;verticalAlign=middle;resizable=0;points=[];autosize=1;strokeColor=none;fillColor=none;fontSize=9;" parent="vQxeVasYHQwNIkFF47vL-443" vertex="1">
          <mxGeometry y="150" width="290" height="20" as="geometry" />
        </mxCell>
        <mxCell id="vQxeVasYHQwNIkFF47vL-451" value="" style="line;html=1;strokeWidth=1;align=left;verticalAlign=middle;spacingTop=-1;spacingLeft=3;spacingRight=3;rotatable=0;labelPosition=right;points=[];portConstraint=eastwest;fontSize=9;" parent="vQxeVasYHQwNIkFF47vL-443" vertex="1">
          <mxGeometry y="170" width="290" height="8" as="geometry" />
        </mxCell>
        <mxCell id="vQxeVasYHQwNIkFF47vL-453" value="&lt;b style=&quot;font-size: 9px;&quot;&gt;Utils&lt;/b&gt;" style="verticalAlign=top;align=center;spacingTop=8;spacingLeft=2;spacingRight=12;shape=cube;size=10;direction=south;fontStyle=4;html=1;fontSize=9;" parent="WIyWlLk6GJQsqaUBKTNV-1" vertex="1">
          <mxGeometry x="-810" y="870" width="810" height="200" as="geometry" />
        </mxCell>
        <mxCell id="vQxeVasYHQwNIkFF47vL-454" value="DateUtils" style="swimlane;fontStyle=1;align=center;verticalAlign=top;childLayout=stackLayout;horizontal=1;startSize=30;horizontalStack=0;resizeParent=1;resizeLast=0;collapsible=1;marginBottom=0;rounded=0;shadow=0;strokeWidth=1;fontSize=9;" parent="WIyWlLk6GJQsqaUBKTNV-1" vertex="1">
          <mxGeometry x="-780" y="895" width="290" height="158" as="geometry">
            <mxRectangle x="130" y="380" width="160" height="26" as="alternateBounds" />
          </mxGeometry>
        </mxCell>
        <mxCell id="vQxeVasYHQwNIkFF47vL-455" value="+ DATE_PATTERN: String" style="text;html=1;align=left;verticalAlign=middle;resizable=0;points=[];autosize=1;strokeColor=none;fillColor=none;fontStyle=4;fontSize=9;" parent="vQxeVasYHQwNIkFF47vL-454" vertex="1">
          <mxGeometry y="30" width="290" height="20" as="geometry" />
        </mxCell>
        <mxCell id="vQxeVasYHQwNIkFF47vL-456" value="+ DateFormat: DateTimeFormatter" style="text;html=1;align=left;verticalAlign=middle;resizable=0;points=[];autosize=1;strokeColor=none;fillColor=none;fontStyle=4;fontSize=9;" parent="vQxeVasYHQwNIkFF47vL-454" vertex="1">
          <mxGeometry y="50" width="290" height="20" as="geometry" />
        </mxCell>
        <mxCell id="vQxeVasYHQwNIkFF47vL-457" value="" style="line;html=1;strokeWidth=1;align=left;verticalAlign=middle;spacingTop=-1;spacingLeft=3;spacingRight=3;rotatable=0;labelPosition=right;points=[];portConstraint=eastwest;fontSize=9;" parent="vQxeVasYHQwNIkFF47vL-454" vertex="1">
          <mxGeometry y="70" width="290" height="8" as="geometry" />
        </mxCell>
        <mxCell id="vQxeVasYHQwNIkFF47vL-458" value="+ getWeekDays(LocalDate d): LocalDate[]" style="text;html=1;align=left;verticalAlign=middle;resizable=0;points=[];autosize=1;strokeColor=none;fillColor=none;fontStyle=4;fontSize=9;" parent="vQxeVasYHQwNIkFF47vL-454" vertex="1">
          <mxGeometry y="78" width="290" height="20" as="geometry" />
        </mxCell>
        <mxCell id="vQxeVasYHQwNIkFF47vL-459" value="+ getWeekNumber(LocalDate d): int" style="text;html=1;align=left;verticalAlign=middle;resizable=0;points=[];autosize=1;strokeColor=none;fillColor=none;fontStyle=4;fontSize=9;" parent="vQxeVasYHQwNIkFF47vL-454" vertex="1">
          <mxGeometry y="98" width="290" height="20" as="geometry" />
        </mxCell>
        <mxCell id="vQxeVasYHQwNIkFF47vL-460" value="+ parse(String dateString): LocalDate" style="text;html=1;align=left;verticalAlign=middle;resizable=0;points=[];autosize=1;strokeColor=none;fillColor=none;fontStyle=4;fontSize=9;" parent="vQxeVasYHQwNIkFF47vL-454" vertex="1">
          <mxGeometry y="118" width="290" height="20" as="geometry" />
        </mxCell>
        <mxCell id="vQxeVasYHQwNIkFF47vL-461" value="+ validDate(String dateInput): boolean" style="text;html=1;align=left;verticalAlign=middle;resizable=0;points=[];autosize=1;strokeColor=none;fillColor=none;fontStyle=4;fontSize=9;" parent="vQxeVasYHQwNIkFF47vL-454" vertex="1">
          <mxGeometry y="138" width="290" height="20" as="geometry" />
        </mxCell>
        <mxCell id="vQxeVasYHQwNIkFF47vL-462" value="JsonUtils" style="swimlane;fontStyle=1;align=center;verticalAlign=top;childLayout=stackLayout;horizontal=1;startSize=30;horizontalStack=0;resizeParent=1;resizeLast=0;collapsible=1;marginBottom=0;rounded=0;shadow=0;strokeWidth=1;fontSize=9;" parent="WIyWlLk6GJQsqaUBKTNV-1" vertex="1">
          <mxGeometry x="-360" y="895" width="290" height="98" as="geometry">
            <mxRectangle x="130" y="380" width="160" height="26" as="alternateBounds" />
          </mxGeometry>
        </mxCell>
        <mxCell id="vQxeVasYHQwNIkFF47vL-463" value="" style="line;html=1;strokeWidth=1;align=left;verticalAlign=middle;spacingTop=-1;spacingLeft=3;spacingRight=3;rotatable=0;labelPosition=right;points=[];portConstraint=eastwest;fontSize=9;" parent="vQxeVasYHQwNIkFF47vL-462" vertex="1">
          <mxGeometry y="30" width="290" height="8" as="geometry" />
        </mxCell>
        <mxCell id="vQxeVasYHQwNIkFF47vL-464" value="+ &amp;lt;T&amp;gt; serialize(T object): String" style="text;html=1;align=left;verticalAlign=middle;resizable=0;points=[];autosize=1;strokeColor=none;fillColor=none;fontStyle=4;fontSize=9;" parent="vQxeVasYHQwNIkFF47vL-462" vertex="1">
          <mxGeometry y="38" width="290" height="20" as="geometry" />
        </mxCell>
        <mxCell id="vQxeVasYHQwNIkFF47vL-465" value="+ &amp;lt;T&amp;gt; deserialize(String json, Type typeOfT): T" style="text;html=1;align=left;verticalAlign=middle;resizable=0;points=[];autosize=1;strokeColor=none;fillColor=none;fontStyle=4;fontSize=9;" parent="vQxeVasYHQwNIkFF47vL-462" vertex="1">
          <mxGeometry y="58" width="290" height="20" as="geometry" />
        </mxCell>
        <mxCell id="vQxeVasYHQwNIkFF47vL-466" value="&lt;&lt;Enum&gt;&gt;&#xa;Role" style="swimlane;fontStyle=1;align=center;verticalAlign=top;childLayout=stackLayout;horizontal=1;startSize=40;horizontalStack=0;resizeParent=1;resizeLast=0;collapsible=1;marginBottom=0;rounded=0;shadow=0;strokeWidth=1;fontSize=9;" parent="WIyWlLk6GJQsqaUBKTNV-1" vertex="1">
          <mxGeometry x="-350" y="393" width="100" height="220" as="geometry">
            <mxRectangle x="130" y="380" width="160" height="26" as="alternateBounds" />
          </mxGeometry>
        </mxCell>
        <mxCell id="vQxeVasYHQwNIkFF47vL-467" value="Cashier" style="text;html=1;align=left;verticalAlign=middle;resizable=0;points=[];autosize=1;strokeColor=none;fillColor=none;fontSize=9;" parent="vQxeVasYHQwNIkFF47vL-466" vertex="1">
          <mxGeometry y="40" width="100" height="20" as="geometry" />
        </mxCell>
        <mxCell id="vQxeVasYHQwNIkFF47vL-468" value="Storekeeper" style="text;html=1;align=left;verticalAlign=middle;resizable=0;points=[];autosize=1;strokeColor=none;fillColor=none;fontSize=9;" parent="vQxeVasYHQwNIkFF47vL-466" vertex="1">
          <mxGeometry y="60" width="100" height="20" as="geometry" />
        </mxCell>
        <mxCell id="vQxeVasYHQwNIkFF47vL-469" value="ShiftManager" style="text;html=1;align=left;verticalAlign=middle;resizable=0;points=[];autosize=1;strokeColor=none;fillColor=none;fontSize=9;" parent="vQxeVasYHQwNIkFF47vL-466" vertex="1">
          <mxGeometry y="80" width="100" height="20" as="geometry" />
        </mxCell>
        <mxCell id="vQxeVasYHQwNIkFF47vL-470" value="GeneralWorker" style="text;html=1;align=left;verticalAlign=middle;resizable=0;points=[];autosize=1;strokeColor=none;fillColor=none;fontSize=9;" parent="vQxeVasYHQwNIkFF47vL-466" vertex="1">
          <mxGeometry y="100" width="100" height="20" as="geometry" />
        </mxCell>
        <mxCell id="vQxeVasYHQwNIkFF47vL-471" value="SecurityGuard" style="text;html=1;align=left;verticalAlign=middle;resizable=0;points=[];autosize=1;strokeColor=none;fillColor=none;fontSize=9;" parent="vQxeVasYHQwNIkFF47vL-466" vertex="1">
          <mxGeometry y="120" width="100" height="20" as="geometry" />
        </mxCell>
        <mxCell id="vQxeVasYHQwNIkFF47vL-472" value="Steward" style="text;html=1;align=left;verticalAlign=middle;resizable=0;points=[];autosize=1;strokeColor=none;fillColor=none;fontSize=9;" parent="vQxeVasYHQwNIkFF47vL-466" vertex="1">
          <mxGeometry y="140" width="100" height="20" as="geometry" />
        </mxCell>
        <mxCell id="vQxeVasYHQwNIkFF47vL-473" value="Cleaner" style="text;html=1;align=left;verticalAlign=middle;resizable=0;points=[];autosize=1;strokeColor=none;fillColor=none;fontSize=9;" parent="vQxeVasYHQwNIkFF47vL-466" vertex="1">
          <mxGeometry y="160" width="100" height="20" as="geometry" />
        </mxCell>
        <mxCell id="vQxeVasYHQwNIkFF47vL-474" value="Driver" style="text;html=1;align=left;verticalAlign=middle;resizable=0;points=[];autosize=1;strokeColor=none;fillColor=none;fontSize=9;" parent="vQxeVasYHQwNIkFF47vL-466" vertex="1">
          <mxGeometry y="180" width="100" height="20" as="geometry" />
        </mxCell>
        <mxCell id="vQxeVasYHQwNIkFF47vL-475" value="0..n" style="edgeStyle=orthogonalEdgeStyle;rounded=0;orthogonalLoop=1;jettySize=auto;html=1;startArrow=none;startFill=0;endArrow=diamondThin;endFill=1;fontSize=9;entryX=0.75;entryY=1;entryDx=0;entryDy=0;" parent="WIyWlLk6GJQsqaUBKTNV-1" source="vQxeVasYHQwNIkFF47vL-321" target="vQxeVasYHQwNIkFF47vL-333" edge="1">
          <mxGeometry x="-0.761" relative="1" as="geometry">
            <Array as="points">
              <mxPoint x="-102" y="120" />
            </Array>
            <mxPoint x="-220" y="120" as="targetPoint" />
            <mxPoint as="offset" />
          </mxGeometry>
        </mxCell>
        <mxCell id="vQxeVasYHQwNIkFF47vL-476" value="calls" style="edgeStyle=orthogonalEdgeStyle;rounded=0;orthogonalLoop=1;jettySize=auto;html=1;entryX=-0.001;entryY=0.141;entryDx=0;entryDy=0;entryPerimeter=0;fontSize=9;endArrow=classic;endFill=1;" parent="WIyWlLk6GJQsqaUBKTNV-1" source="vQxeVasYHQwNIkFF47vL-477" target="vQxeVasYHQwNIkFF47vL-482" edge="1">
          <mxGeometry x="-0.0042" relative="1" as="geometry">
            <mxPoint as="offset" />
          </mxGeometry>
        </mxCell>
        <mxCell id="vQxeVasYHQwNIkFF47vL-477" value="Main" style="swimlane;fontStyle=1;align=center;verticalAlign=top;childLayout=stackLayout;horizontal=1;startSize=26;horizontalStack=0;resizeParent=1;resizeParentMax=0;resizeLast=0;collapsible=1;marginBottom=0;fontSize=9;" parent="WIyWlLk6GJQsqaUBKTNV-1" vertex="1">
          <mxGeometry x="-679" y="-1104" width="143" height="60" as="geometry" />
        </mxCell>
        <mxCell id="vQxeVasYHQwNIkFF47vL-478" value="" style="line;strokeWidth=1;fillColor=none;align=left;verticalAlign=middle;spacingTop=-1;spacingLeft=3;spacingRight=3;rotatable=0;labelPosition=right;points=[];portConstraint=eastwest;fontSize=9;" parent="vQxeVasYHQwNIkFF47vL-477" vertex="1">
          <mxGeometry y="26" width="143" height="8" as="geometry" />
        </mxCell>
        <mxCell id="vQxeVasYHQwNIkFF47vL-479" value="+ static main(String[] args): void" style="text;strokeColor=none;fillColor=none;align=left;verticalAlign=top;spacingLeft=4;spacingRight=4;overflow=hidden;rotatable=0;points=[[0,0.5],[1,0.5]];portConstraint=eastwest;fontStyle=4;fontSize=9;" parent="vQxeVasYHQwNIkFF47vL-477" vertex="1">
          <mxGeometry y="34" width="143" height="26" as="geometry" />
        </mxCell>
        <mxCell id="vQxeVasYHQwNIkFF47vL-480" value="" style="edgeStyle=orthogonalEdgeStyle;rounded=0;orthogonalLoop=1;jettySize=auto;html=1;entryX=0.5;entryY=0;entryDx=0;entryDy=0;fontSize=9;endArrow=none;endFill=0;startArrow=diamondThin;startFill=0;" parent="WIyWlLk6GJQsqaUBKTNV-1" source="vQxeVasYHQwNIkFF47vL-481" target="vQxeVasYHQwNIkFF47vL-486" edge="1">
          <mxGeometry x="-0.0086" relative="1" as="geometry">
            <Array as="points">
              <mxPoint x="-403" y="-1020" />
            </Array>
            <mxPoint as="offset" />
          </mxGeometry>
        </mxCell>
        <mxCell id="vQxeVasYHQwNIkFF47vL-481" value="MenuManager" style="swimlane;fontStyle=1;align=center;verticalAlign=top;childLayout=stackLayout;horizontal=1;startSize=26;horizontalStack=0;resizeParent=1;resizeParentMax=0;resizeLast=0;collapsible=1;marginBottom=0;fontSize=9;" parent="WIyWlLk6GJQsqaUBKTNV-1" vertex="1">
          <mxGeometry x="-476.5" y="-1104" width="143" height="60" as="geometry" />
        </mxCell>
        <mxCell id="vQxeVasYHQwNIkFF47vL-482" value="- finished: boolean" style="text;strokeColor=none;fillColor=none;align=left;verticalAlign=top;spacingLeft=4;spacingRight=4;overflow=hidden;rotatable=0;points=[[0,0.5],[1,0.5]];portConstraint=eastwest;fontStyle=4;fontSize=9;" parent="vQxeVasYHQwNIkFF47vL-481" vertex="1">
          <mxGeometry y="26" width="143" height="26" as="geometry" />
        </mxCell>
        <mxCell id="vQxeVasYHQwNIkFF47vL-483" value="" style="line;strokeWidth=1;fillColor=none;align=left;verticalAlign=middle;spacingTop=-1;spacingLeft=3;spacingRight=3;rotatable=0;labelPosition=right;points=[];portConstraint=eastwest;fontSize=9;" parent="vQxeVasYHQwNIkFF47vL-481" vertex="1">
          <mxGeometry y="52" width="143" height="8" as="geometry" />
        </mxCell>
        <mxCell id="vQxeVasYHQwNIkFF47vL-486" value="&lt;&lt;Interface&gt;&gt;&#xa;Menu" style="swimlane;fontStyle=1;align=center;verticalAlign=top;childLayout=stackLayout;horizontal=1;startSize=30;horizontalStack=0;resizeParent=1;resizeParentMax=0;resizeLast=0;collapsible=1;marginBottom=0;fontSize=9;" parent="WIyWlLk6GJQsqaUBKTNV-1" vertex="1">
          <mxGeometry x="-459.5" y="-1020" width="115" height="38" as="geometry" />
        </mxCell>
        <mxCell id="vQxeVasYHQwNIkFF47vL-487" value="" style="line;strokeWidth=1;fillColor=none;align=left;verticalAlign=middle;spacingTop=-1;spacingLeft=3;spacingRight=3;rotatable=0;labelPosition=right;points=[];portConstraint=eastwest;fontSize=9;" parent="vQxeVasYHQwNIkFF47vL-486" vertex="1">
          <mxGeometry y="30" width="115" height="8" as="geometry" />
        </mxCell>
        <mxCell id="vQxeVasYHQwNIkFF47vL-490" style="edgeStyle=orthogonalEdgeStyle;rounded=0;orthogonalLoop=1;jettySize=auto;html=1;fontSize=9;endArrow=none;endFill=0;dashed=1;" parent="WIyWlLk6GJQsqaUBKTNV-1" source="vQxeVasYHQwNIkFF47vL-492" edge="1">
          <mxGeometry relative="1" as="geometry">
            <mxPoint x="-410" y="-962" as="targetPoint" />
            <Array as="points">
              <mxPoint x="-605" y="-962" />
              <mxPoint x="-405" y="-962" />
            </Array>
          </mxGeometry>
        </mxCell>
        <mxCell id="vQxeVasYHQwNIkFF47vL-491" value="" style="edgeStyle=orthogonalEdgeStyle;rounded=0;orthogonalLoop=1;jettySize=auto;html=1;entryX=0.5;entryY=0;entryDx=0;entryDy=0;fontSize=9;endArrow=none;endFill=0;startArrow=diamondThin;startFill=0;" parent="WIyWlLk6GJQsqaUBKTNV-1" source="vQxeVasYHQwNIkFF47vL-492" target="vQxeVasYHQwNIkFF47vL-502" edge="1">
          <mxGeometry relative="1" as="geometry" />
        </mxCell>
        <mxCell id="vQxeVasYHQwNIkFF47vL-492" value="LoginMenu" style="swimlane;fontStyle=1;align=center;verticalAlign=top;childLayout=stackLayout;horizontal=1;startSize=20;horizontalStack=0;resizeParent=1;resizeParentMax=0;resizeLast=0;collapsible=1;marginBottom=0;fontSize=9;" parent="WIyWlLk6GJQsqaUBKTNV-1" vertex="1">
          <mxGeometry x="-690" y="-957" width="170" height="28" as="geometry" />
        </mxCell>
        <mxCell id="vQxeVasYHQwNIkFF47vL-493" value="" style="line;strokeWidth=1;fillColor=none;align=left;verticalAlign=middle;spacingTop=-1;spacingLeft=3;spacingRight=3;rotatable=0;labelPosition=right;points=[];portConstraint=eastwest;fontSize=9;" parent="vQxeVasYHQwNIkFF47vL-492" vertex="1">
          <mxGeometry y="20" width="170" height="8" as="geometry" />
        </mxCell>
        <mxCell id="vQxeVasYHQwNIkFF47vL-494" value="" style="edgeStyle=orthogonalEdgeStyle;rounded=0;orthogonalLoop=1;jettySize=auto;html=1;entryX=0.5;entryY=0;entryDx=0;entryDy=0;fontSize=9;endArrow=none;endFill=0;startArrow=diamondThin;startFill=0;" parent="WIyWlLk6GJQsqaUBKTNV-1" source="vQxeVasYHQwNIkFF47vL-495" target="vQxeVasYHQwNIkFF47vL-508" edge="1">
          <mxGeometry relative="1" as="geometry" />
        </mxCell>
        <mxCell id="vQxeVasYHQwNIkFF47vL-495" value="EmployeeMenu" style="swimlane;fontStyle=1;align=center;verticalAlign=top;childLayout=stackLayout;horizontal=1;startSize=20;horizontalStack=0;resizeParent=1;resizeParentMax=0;resizeLast=0;collapsible=1;marginBottom=0;fontSize=9;" parent="WIyWlLk6GJQsqaUBKTNV-1" vertex="1">
          <mxGeometry x="-462.5" y="-957" width="115" height="28" as="geometry" />
        </mxCell>
        <mxCell id="vQxeVasYHQwNIkFF47vL-496" value="" style="line;strokeWidth=1;fillColor=none;align=left;verticalAlign=middle;spacingTop=-1;spacingLeft=3;spacingRight=3;rotatable=0;labelPosition=right;points=[];portConstraint=eastwest;fontSize=9;" parent="vQxeVasYHQwNIkFF47vL-495" vertex="1">
          <mxGeometry y="20" width="115" height="8" as="geometry" />
        </mxCell>
        <mxCell id="vQxeVasYHQwNIkFF47vL-497" style="edgeStyle=orthogonalEdgeStyle;rounded=0;orthogonalLoop=1;jettySize=auto;html=1;fontSize=9;endArrow=none;endFill=0;dashed=1;" parent="WIyWlLk6GJQsqaUBKTNV-1" source="vQxeVasYHQwNIkFF47vL-499" edge="1">
          <mxGeometry relative="1" as="geometry">
            <Array as="points">
              <mxPoint x="-201" y="-962" />
              <mxPoint x="-405" y="-962" />
            </Array>
            <mxPoint x="-400" y="-961.9999999999999" as="targetPoint" />
          </mxGeometry>
        </mxCell>
        <mxCell id="vQxeVasYHQwNIkFF47vL-498" value="" style="edgeStyle=orthogonalEdgeStyle;rounded=0;orthogonalLoop=1;jettySize=auto;html=1;entryX=0.5;entryY=0;entryDx=0;entryDy=0;fontSize=9;endArrow=none;endFill=0;startArrow=diamondThin;startFill=0;" parent="WIyWlLk6GJQsqaUBKTNV-1" source="vQxeVasYHQwNIkFF47vL-499" target="vQxeVasYHQwNIkFF47vL-514" edge="1">
          <mxGeometry relative="1" as="geometry" />
        </mxCell>
        <mxCell id="vQxeVasYHQwNIkFF47vL-499" value="HRManagerMenu" style="swimlane;fontStyle=1;align=center;verticalAlign=top;childLayout=stackLayout;horizontal=1;startSize=20;horizontalStack=0;resizeParent=1;resizeParentMax=0;resizeLast=0;collapsible=1;marginBottom=0;fontSize=9;" parent="WIyWlLk6GJQsqaUBKTNV-1" vertex="1">
          <mxGeometry x="-262.5" y="-957" width="122.5" height="28" as="geometry" />
        </mxCell>
        <mxCell id="vQxeVasYHQwNIkFF47vL-500" value="" style="line;strokeWidth=1;fillColor=none;align=left;verticalAlign=middle;spacingTop=-1;spacingLeft=3;spacingRight=3;rotatable=0;labelPosition=right;points=[];portConstraint=eastwest;fontSize=9;" parent="vQxeVasYHQwNIkFF47vL-499" vertex="1">
          <mxGeometry y="20" width="122.5" height="8" as="geometry" />
        </mxCell>
        <mxCell id="vQxeVasYHQwNIkFF47vL-501" style="edgeStyle=orthogonalEdgeStyle;rounded=0;orthogonalLoop=1;jettySize=auto;html=1;endArrow=none;endFill=0;entryX=0.5;entryY=0;entryDx=0;entryDy=0;startArrow=diamondThin;startFill=0;" parent="WIyWlLk6GJQsqaUBKTNV-1" source="vQxeVasYHQwNIkFF47vL-502" target="vQxeVasYHQwNIkFF47vL-267" edge="1">
          <mxGeometry relative="1" as="geometry">
            <mxPoint x="-400" y="-660" as="targetPoint" />
            <Array as="points">
              <mxPoint x="-605" y="-850" />
              <mxPoint x="-402" y="-850" />
            </Array>
          </mxGeometry>
        </mxCell>
        <mxCell id="vQxeVasYHQwNIkFF47vL-502" value="LoginMenuVM" style="swimlane;fontStyle=1;align=center;verticalAlign=top;childLayout=stackLayout;horizontal=1;startSize=20;horizontalStack=0;resizeParent=1;resizeParentMax=0;resizeLast=0;collapsible=1;marginBottom=0;fontSize=9;" parent="WIyWlLk6GJQsqaUBKTNV-1" vertex="1">
          <mxGeometry x="-690" y="-898" width="170" height="28" as="geometry" />
        </mxCell>
        <mxCell id="vQxeVasYHQwNIkFF47vL-503" value="" style="line;strokeWidth=1;fillColor=none;align=left;verticalAlign=middle;spacingTop=-1;spacingLeft=3;spacingRight=3;rotatable=0;labelPosition=right;points=[];portConstraint=eastwest;fontSize=9;" parent="vQxeVasYHQwNIkFF47vL-502" vertex="1">
          <mxGeometry y="20" width="170" height="8" as="geometry" />
        </mxCell>
        <mxCell id="vQxeVasYHQwNIkFF47vL-508" value="EmployeeMenuVM" style="swimlane;fontStyle=1;align=center;verticalAlign=top;childLayout=stackLayout;horizontal=1;startSize=20;horizontalStack=0;resizeParent=1;resizeParentMax=0;resizeLast=0;collapsible=1;marginBottom=0;fontSize=9;" parent="WIyWlLk6GJQsqaUBKTNV-1" vertex="1">
          <mxGeometry x="-462.5" y="-898" width="115" height="28" as="geometry" />
        </mxCell>
        <mxCell id="vQxeVasYHQwNIkFF47vL-509" value="" style="line;strokeWidth=1;fillColor=none;align=left;verticalAlign=middle;spacingTop=-1;spacingLeft=3;spacingRight=3;rotatable=0;labelPosition=right;points=[];portConstraint=eastwest;fontSize=9;" parent="vQxeVasYHQwNIkFF47vL-508" vertex="1">
          <mxGeometry y="20" width="115" height="8" as="geometry" />
        </mxCell>
        <mxCell id="vQxeVasYHQwNIkFF47vL-513" style="edgeStyle=orthogonalEdgeStyle;rounded=0;orthogonalLoop=1;jettySize=auto;html=1;entryX=0.496;entryY=0.001;entryDx=0;entryDy=0;entryPerimeter=0;endArrow=none;endFill=0;startArrow=diamondThin;startFill=0;" parent="WIyWlLk6GJQsqaUBKTNV-1" source="vQxeVasYHQwNIkFF47vL-514" target="vQxeVasYHQwNIkFF47vL-267" edge="1">
          <mxGeometry relative="1" as="geometry">
            <Array as="points">
              <mxPoint x="-201" y="-850" />
              <mxPoint x="-403" y="-850" />
            </Array>
          </mxGeometry>
        </mxCell>
        <mxCell id="vQxeVasYHQwNIkFF47vL-514" value="HRManagerMenuVM" style="swimlane;fontStyle=1;align=center;verticalAlign=top;childLayout=stackLayout;horizontal=1;startSize=20;horizontalStack=0;resizeParent=1;resizeParentMax=0;resizeLast=0;collapsible=1;marginBottom=0;fontSize=9;" parent="WIyWlLk6GJQsqaUBKTNV-1" vertex="1">
          <mxGeometry x="-262.5" y="-898" width="122.5" height="28" as="geometry" />
        </mxCell>
        <mxCell id="vQxeVasYHQwNIkFF47vL-515" value="" style="line;strokeWidth=1;fillColor=none;align=left;verticalAlign=middle;spacingTop=-1;spacingLeft=3;spacingRight=3;rotatable=0;labelPosition=right;points=[];portConstraint=eastwest;fontSize=9;" parent="vQxeVasYHQwNIkFF47vL-514" vertex="1">
          <mxGeometry y="20" width="122.5" height="8" as="geometry" />
        </mxCell>
        <mxCell id="vQxeVasYHQwNIkFF47vL-520" value="&lt;&lt;Enum&gt;&gt;&#xa;ShiftType" style="swimlane;fontStyle=1;align=center;verticalAlign=top;childLayout=stackLayout;horizontal=1;startSize=40;horizontalStack=0;resizeParent=1;resizeLast=0;collapsible=1;marginBottom=0;rounded=0;shadow=0;strokeWidth=1;fontSize=9;" parent="WIyWlLk6GJQsqaUBKTNV-1" vertex="1">
          <mxGeometry x="-424.5" y="640" width="80" height="108" as="geometry">
            <mxRectangle x="130" y="380" width="160" height="26" as="alternateBounds" />
          </mxGeometry>
        </mxCell>
        <mxCell id="vQxeVasYHQwNIkFF47vL-521" value="Morning" style="text;html=1;align=middle;verticalAlign=middle;resizable=0;points=[];autosize=1;strokeColor=none;fillColor=none;imageAlign=left;fontSize=9;" parent="vQxeVasYHQwNIkFF47vL-520" vertex="1">
          <mxGeometry y="40" width="80" height="20" as="geometry" />
        </mxCell>
        <mxCell id="vQxeVasYHQwNIkFF47vL-522" value="Evening" style="text;html=1;align=middle;verticalAlign=middle;resizable=0;points=[];autosize=1;strokeColor=none;fillColor=none;fontSize=9;" parent="vQxeVasYHQwNIkFF47vL-520" vertex="1">
          <mxGeometry y="60" width="80" height="20" as="geometry" />
        </mxCell>
        <mxCell id="vQxeVasYHQwNIkFF47vL-523" value="" style="line;html=1;strokeWidth=1;align=left;verticalAlign=middle;spacingTop=-1;spacingLeft=3;spacingRight=3;rotatable=0;labelPosition=right;points=[];portConstraint=eastwest;fontSize=9;" parent="vQxeVasYHQwNIkFF47vL-520" vertex="1">
          <mxGeometry y="80" width="80" height="8" as="geometry" />
        </mxCell>
        <mxCell id="vQxeVasYHQwNIkFF47vL-524" value="" style="edgeStyle=orthogonalEdgeStyle;rounded=0;orthogonalLoop=1;jettySize=auto;html=1;fontSize=9;endArrow=none;endFill=0;startArrow=diamondThin;startFill=0;" parent="WIyWlLk6GJQsqaUBKTNV-1" source="vQxeVasYHQwNIkFF47vL-508" edge="1">
          <mxGeometry x="0.3231" relative="1" as="geometry">
            <Array as="points">
              <mxPoint x="-403" y="-820" />
            </Array>
            <mxPoint as="offset" />
            <mxPoint x="-403" y="-820" as="targetPoint" />
          </mxGeometry>
        </mxCell>
        <mxCell id="vQxeVasYHQwNIkFF47vL-525" value="implements" style="edgeStyle=orthogonalEdgeStyle;rounded=0;orthogonalLoop=1;jettySize=auto;html=1;fontSize=7;endArrow=block;endFill=0;entryX=0.5;entryY=1;entryDx=0;entryDy=0;dashed=1;exitX=0.526;exitY=0.036;exitDx=0;exitDy=0;exitPerimeter=0;" parent="WIyWlLk6GJQsqaUBKTNV-1" source="vQxeVasYHQwNIkFF47vL-495" target="vQxeVasYHQwNIkFF47vL-486" edge="1">
          <mxGeometry relative="1" as="geometry">
            <mxPoint x="-403.9549999999999" y="-955.896" as="targetPoint" />
            <Array as="points" />
            <mxPoint x="-404" y="-900" as="sourcePoint" />
          </mxGeometry>
        </mxCell>
        <mxCell id="vQxeVasYHQwNIkFF47vL-529" style="edgeStyle=orthogonalEdgeStyle;rounded=0;orthogonalLoop=1;jettySize=auto;html=1;entryX=0.5;entryY=0;entryDx=0;entryDy=0;startArrow=none;startFill=0;endArrow=classic;endFill=1;" parent="WIyWlLk6GJQsqaUBKTNV-1" source="vQxeVasYHQwNIkFF47vL-348" target="vQxeVasYHQwNIkFF47vL-399" edge="1">
          <mxGeometry relative="1" as="geometry">
            <Array as="points">
              <mxPoint x="-575" y="-460" />
              <mxPoint x="-245" y="-460" />
            </Array>
          </mxGeometry>
        </mxCell>
        <mxCell id="vQxeVasYHQwNIkFF47vL-528" value="uses" style="edgeStyle=orthogonalEdgeStyle;rounded=0;orthogonalLoop=1;jettySize=auto;html=1;entryX=0.5;entryY=0;entryDx=0;entryDy=0;startArrow=none;startFill=0;endArrow=classic;endFill=1;" parent="WIyWlLk6GJQsqaUBKTNV-1" source="vQxeVasYHQwNIkFF47vL-348" target="vQxeVasYHQwNIkFF47vL-394" edge="1">
          <mxGeometry x="-0.761" relative="1" as="geometry">
            <Array as="points">
              <mxPoint x="-575" y="-460" />
              <mxPoint x="-390" y="-460" />
            </Array>
            <mxPoint as="offset" />
          </mxGeometry>
        </mxCell>
        <mxCell id="P4XCKy7YTdUxU0l-9nhQ-8" value="" style="endArrow=open;startArrow=cross;endFill=0;startFill=0;endSize=8;startSize=10;html=1;rounded=0;entryX=0.299;entryY=0.003;entryDx=0;entryDy=0;entryPerimeter=0;" edge="1" parent="WIyWlLk6GJQsqaUBKTNV-1" source="vQxeVasYHQwNIkFF47vL-267" target="vQxeVasYHQwNIkFF47vL-348">
          <mxGeometry width="160" relative="1" as="geometry">
            <mxPoint x="-780" y="-640" as="sourcePoint" />
            <mxPoint x="-620" y="-640" as="targetPoint" />
            <Array as="points">
              <mxPoint x="-661" y="-783" />
            </Array>
          </mxGeometry>
        </mxCell>
        <mxCell id="P4XCKy7YTdUxU0l-9nhQ-9" value="" style="endArrow=open;startArrow=cross;endFill=0;startFill=0;endSize=8;startSize=10;html=1;rounded=0;entryX=0.299;entryY=0.003;entryDx=0;entryDy=0;entryPerimeter=0;exitX=1;exitY=0.5;exitDx=0;exitDy=0;" edge="1" parent="WIyWlLk6GJQsqaUBKTNV-1" source="vQxeVasYHQwNIkFF47vL-267">
          <mxGeometry width="160" relative="1" as="geometry">
            <mxPoint y="-783" as="sourcePoint" />
            <mxPoint x="-149" y="-560" as="targetPoint" />
            <Array as="points">
              <mxPoint x="-149" y="-783" />
              <mxPoint x="-148" y="-660" />
            </Array>
          </mxGeometry>
        </mxCell>
      </root>
    </mxGraphModel>
  </diagram>
</mxfile>
